<?xml version="1.0" encoding="UTF-8"?>
<!DOCTYPE svg PUBLIC "-//W3C//DTD SVG 1.1//EN" "http://www.w3.org/Graphics/SVG/1.1/DTD/svg11.dtd">
<!-- Creator: CorelDRAW X7 -->
<svg xmlns="http://www.w3.org/2000/svg" xml:space="preserve" width="44px" height="25px" version="1.1" shape-rendering="geometricPrecision" text-rendering="geometricPrecision" image-rendering="optimizeQuality" fill-rule="evenodd" clip-rule="evenodd"
viewBox="0 0 1163 664"
 xmlns:xlink="http://www.w3.org/1999/xlink">
 <g id="Слой_x0020_1">
  <metadata id="CorelCorpID_0Corel-Layer"/>
  <g id="_417083576">
   <path fill="none" fill-rule="nonzero" stroke="black" stroke-width="18.8654" d="M9 450c0,-110 0,-220 0,-330 0,-61 52,-111 115,-111 305,0 610,0 915,0 63,0 114,50 114,111 0,110 0,220 0,330 0,61 -51,110 -114,110 -181,0 -362,0 -543,0 -91,30 -182,60 -273,90 5,-30 10,-60 15,-90 -38,0 -76,0 -114,0 -63,0 -115,-49 -115,-110z"/>
   <path fill="none" stroke="black" stroke-width="18.8654" d="M305 210c43,0 78,34 78,75 0,41 -35,74 -78,74 -44,0 -78,-33 -78,-74 0,-41 34,-75 78,-75z"/>
   <path fill="none" stroke="black" stroke-width="18.8654" d="M864 208c44,0 80,34 80,76 0,42 -36,75 -80,75 -43,0 -79,-33 -79,-75 0,-42 36,-76 79,-76z"/>
   <path fill="none" stroke="black" stroke-width="18.8654" d="M585 209c43,0 79,33 79,75 0,42 -36,75 -79,75 -44,0 -79,-33 -79,-75 0,-42 35,-75 79,-75z"/>
  </g>
 </g>
</svg>
