<?xml version="1.0" encoding="UTF-8"?>
<!DOCTYPE svg PUBLIC "-//W3C//DTD SVG 1.1//EN" "http://www.w3.org/Graphics/SVG/1.1/DTD/svg11.dtd">
<!-- Creator: CorelDRAW X7 -->
<svg xmlns="http://www.w3.org/2000/svg" xml:space="preserve" width="22px" height="35px" version="1.1" shape-rendering="geometricPrecision" text-rendering="geometricPrecision" image-rendering="optimizeQuality" fill-rule="evenodd" clip-rule="evenodd"
viewBox="0 0 255 416"
 xmlns:xlink="http://www.w3.org/1999/xlink">
 <g id="Слой_x0020_1">
  <metadata id="CorelCorpID_0Corel-Layer"/>
  <path fill="none" stroke="black" stroke-width="8.39699" d="M127 4l0 0c43,0 78,35 78,78l0 123c0,43 -35,78 -78,78l0 0c-43,0 -78,-35 -78,-78l0 -123c0,-43 35,-78 78,-78z"/>
  <path fill="none" stroke="black" stroke-width="8.39699" d="M7 141c-36,225 273,242 241,-1"/>
  <path fill="none" stroke="black" stroke-width="8.39699" d="M6 412c163,-1 244,-1 244,-1"/>
  <path fill="none" stroke="black" stroke-width="8.39699" d="M129 316c0,13 0,45 0,95"/>
 </g>
</svg>
