<?xml version="1.0" encoding="UTF-8"?>
<!DOCTYPE svg PUBLIC "-//W3C//DTD SVG 1.1//EN" "http://www.w3.org/Graphics/SVG/1.1/DTD/svg11.dtd">
<!-- Creator: CorelDRAW X7 -->
<svg xmlns="http://www.w3.org/2000/svg" xml:space="preserve" width="35px" height="26px" version="1.1" shape-rendering="geometricPrecision" text-rendering="geometricPrecision" image-rendering="optimizeQuality" fill-rule="evenodd" clip-rule="evenodd"
viewBox="0 0 658 494"
 xmlns:xlink="http://www.w3.org/1999/xlink">
 <g id="Слой_x0020_1">
  <metadata id="CorelCorpID_0Corel-Layer"/>
  <g id="_440186544">
   <path fill="none" stroke="black" stroke-width="13.2607" d="M72 10c-45,-12 -67,7 -65,58 0,225 0,337 0,337 0,41 24,68 70,82 328,0 493,0 493,0 51,-6 78,-29 82,-70 -3,-230 -4,-345 -4,-345 5,-47 -19,-68 -74,-62 -334,0 -502,0 -502,0z"/>
   <path fill="none" stroke="black" stroke-width="13.2607" d="M72 10c-29,-8 -48,-3 -58,16 187,188 280,282 280,282 25,25 50,25 74,0 185,-179 278,-269 278,-269 -3,-26 -46,-36 -130,-29 -296,0 -444,0 -444,0z"/>
  </g>
 </g>
</svg>
