<?xml version="1.0" encoding="UTF-8"?>
<!DOCTYPE svg PUBLIC "-//W3C//DTD SVG 1.1//EN" "http://www.w3.org/Graphics/SVG/1.1/DTD/svg11.dtd">
<!-- Creator: CorelDRAW X7 -->
<svg xmlns="http://www.w3.org/2000/svg" xml:space="preserve" width="34px" height="33px" version="1.1" shape-rendering="geometricPrecision" text-rendering="geometricPrecision" image-rendering="optimizeQuality" fill-rule="evenodd" clip-rule="evenodd"
viewBox="0 0 613 597"
 xmlns:xlink="http://www.w3.org/1999/xlink">
 <g id="Слой_x0020_1">
  <metadata id="CorelCorpID_0Corel-Layer"/>
  <path fill="none" stroke="black" stroke-width="12.8924" d="M140 406c2,-9 -2,-34 -9,-42 -5,-6 -3,-3 -12,-12 -32,-34 -84,-81 -109,-105 -9,-22 -1,-34 23,-38 104,-15 156,-22 156,-22 18,-3 29,-14 32,-35 44,-91 66,-136 66,-136 16,-13 29,-13 39,2 48,98 72,148 72,148 5,16 20,24 45,23 96,16 144,24 144,24 23,8 26,21 10,38 -78,76 -116,114 -116,114 -11,10 -14,26 -9,48 18,101 27,152 27,152 -4,25 -17,32 -39,21 -91,-51 -137,-77 -137,-77 -15,-10 -30,-9 -43,3 -93,51 -139,77 -139,77 -20,4 -29,-4 -26,-24 8,-53 16,-107 25,-159z"/>
 </g>
</svg>
