<?xml version="1.0" encoding="UTF-8"?>
<!DOCTYPE svg PUBLIC "-//W3C//DTD SVG 1.1//EN" "http://www.w3.org/Graphics/SVG/1.1/DTD/svg11.dtd">
<!-- Creator: CorelDRAW X7 -->
<svg xmlns="http://www.w3.org/2000/svg" xml:space="preserve" width="20px" height="33px" version="1.1" shape-rendering="geometricPrecision" text-rendering="geometricPrecision" image-rendering="optimizeQuality" fill-rule="evenodd" clip-rule="evenodd"
viewBox="0 0 216 362"
 xmlns:xlink="http://www.w3.org/1999/xlink">
 <g id="Слой_x0020_1">
  <metadata id="CorelCorpID_0Corel-Layer"/>
  <g id="_418651552">
   <path fill="none" stroke="black" stroke-width="7.63955" d="M116 310c0,-155 0,-233 0,-233 0,-50 0,-75 0,-75"/>
   <path fill="none" stroke="black" stroke-width="7.63955" d="M116 77c0,-47 0,-71 0,-71 55,27 87,63 95,110 7,40 -7,73 -18,112 -18,34 -12,-31 -12,-35 0,-36 -22,-74 -65,-116z"/>
   <path fill="none" stroke="black" stroke-width="7.63955" d="M116 281c-27,-20 -53,-24 -78,-13 -59,27 -37,105 32,87 17,-4 30,-13 39,-28 9,-17 7,-27 7,-46z"/>
  </g>
 </g>
</svg>
