<?xml version="1.0" encoding="UTF-8"?>
<!DOCTYPE svg PUBLIC "-//W3C//DTD SVG 1.1//EN" "http://www.w3.org/Graphics/SVG/1.1/DTD/svg11.dtd">
<!-- Creator: CorelDRAW X7 -->
<svg xmlns="http://www.w3.org/2000/svg" xml:space="preserve" width="37px" height="26px" version="1.1" shape-rendering="geometricPrecision" text-rendering="geometricPrecision" image-rendering="optimizeQuality" fill-rule="evenodd" clip-rule="evenodd"
viewBox="0 0 1158 798"
 xmlns:xlink="http://www.w3.org/1999/xlink">
 <g id="Слой_x0020_1">
  <metadata id="CorelCorpID_0Corel-Layer"/>
  <path fill="none" stroke="black" stroke-width="22.3744" d="M90 85l978 0c43,0 79,36 79,79l0 544c0,43 -36,78 -79,78l-978 0c-43,0 -79,-35 -79,-78l0 -544c0,-43 36,-79 79,-79z"/>
  <path fill="none" stroke="black" stroke-width="22.3744" d="M961 244l26 0c15,0 28,13 28,28l0 0c0,16 -13,29 -28,29l-26 0c-16,0 -28,-13 -28,-29l0 0c0,-15 12,-28 28,-28z"/>
  <path fill="none" stroke="black" stroke-width="22.3744" d="M554 741c-174,0 -314,-137 -314,-305 0,-169 140,-306 314,-306 173,0 313,137 313,306 0,168 -140,305 -313,305z"/>
  <path fill="none" stroke="black" stroke-width="22.3744" d="M972 11l54 0c21,0 37,17 37,37l0 0c0,20 -16,37 -37,37l-54 0c-20,0 -37,-17 -37,-37l0 0c0,-20 17,-37 37,-37z"/>
 </g>
</svg>
