<?xml version="1.0" encoding="UTF-8"?>
<!DOCTYPE svg PUBLIC "-//W3C//DTD SVG 1.1//EN" "http://www.w3.org/Graphics/SVG/1.1/DTD/svg11.dtd">
<!-- Creator: CorelDRAW X7 -->
<svg xmlns="http://www.w3.org/2000/svg" xml:space="preserve" width="43px" height="23px" version="1.1" shape-rendering="geometricPrecision" text-rendering="geometricPrecision" image-rendering="optimizeQuality" fill-rule="evenodd" clip-rule="evenodd"
viewBox="0 0 1301 706"
 xmlns:xlink="http://www.w3.org/1999/xlink">
 <g id="Слой_x0020_1">
  <metadata id="CorelCorpID_0Corel-Layer"/>
  <g id="_445925312">
   <path fill="none" stroke="black" stroke-width="21.4724" d="M131 695c505,0 758,0 758,0 31,-1 46,-30 44,-89 0,-357 0,-536 0,-536 2,-42 -23,-62 -74,-59 -397,0 -647,0 -750,0 -96,0 -98,44 -98,129 0,228 0,378 0,448 0,117 9,107 120,107z"/>
   <path fill="none" stroke="black" stroke-width="21.4724" d="M933 455c0,-127 0,-191 0,-191 238,-109 357,-164 357,-164 0,318 0,476 0,476 -238,-80 -357,-121 -357,-121z"/>
  </g>
 </g>
</svg>
