<?xml version="1.0" encoding="UTF-8"?>
<!DOCTYPE svg PUBLIC "-//W3C//DTD SVG 1.1//EN" "http://www.w3.org/Graphics/SVG/1.1/DTD/svg11.dtd">
<!-- Creator: CorelDRAW X8 -->
<svg xmlns="http://www.w3.org/2000/svg" xml:space="preserve" width="833px" height="833px" version="1.1" style="shape-rendering:geometricPrecision; text-rendering:geometricPrecision; image-rendering:optimizeQuality; fill-rule:evenodd; clip-rule:evenodd"
viewBox="0 0 1701203 1701203"
 xmlns:xlink="http://www.w3.org/1999/xlink">
 <defs>
  <style type="text/css">
   <![CDATA[
    .fil0 {fill:#333333}
   ]]>
  </style>
 </defs>
 <g id="Слой_x0020_1">
  <metadata id="CorelCorpID_0Corel-Layer"/>
  <path class="fil0" d="M800852 1135173l0 -569980c0,-10727 -8779,-19014 -19504,-19014l-113116 0c-11215,0 -19502,8287 -19502,19014l0 569980c0,10727 8287,19501 19502,19501l113116 0c10728,0 19504,-8779 19504,-19501zm234036 -588996l-113117 0c-10727,0 -19501,8287 -19501,19014l0 569977c0,10727 8287,19504 19501,19504l113117 0c10727,0 19504,-8779 19504,-19504l0 -569977c0,-10727 -8779,-19014 -19504,-19014zm589594 652650c10361,-25503 20457,-45260 30624,-75753 60602,-181811 62297,-363539 44,-545263 -32879,-95974 -104967,-226062 -179527,-299137 -25571,-25062 -8951,-14566 -38632,-39100 -5967,-4933 -9157,-8590 -14546,-14093l-57391 -48973c-259430,-193258 -562225,-229435 -863112,-100537 -75626,32396 -190833,113145 -251563,173892l-49983 56385c-122017,158087 -200396,319634 -200396,544216 0,198363 88868,437390 226005,571793l37992 39738c7513,6209 8466,6840 15207,13430 79055,77287 195393,144078 299031,179602 28230,9676 52465,15974 82761,23598 118956,29939 260515,30260 379643,7 82842,-21037 85487,-24632 158437,-54280 35070,-14250 105897,-54841 135569,-77159 35345,-26583 98780,-76364 126889,-110385 4934,-5972 8586,-9160 14089,-14551 11788,-11555 14951,-15726 25001,-28182 8089,-10025 15545,-18496 24193,-28989 31020,-37636 81483,-121489 99665,-166259zm-858512 -1130992c252809,-30944 539266,80878 693954,279677 170885,219622 228087,496196 134684,764126 -38884,111547 -123771,252450 -214776,325264 -9622,7704 -16128,14918 -26216,22824 -35680,27962 -72822,54123 -117230,79238 -83797,47393 -187725,82430 -298113,94266 -464007,49749 -827719,-287282 -870110,-696541 -12376,-119484 2708,-242330 38735,-347512 45292,-132211 134533,-263893 241072,-347992 124435,-98221 247421,-152471 418000,-173350z"/>
 </g>
</svg>
