<?xml version="1.0" encoding="UTF-8"?>
<!DOCTYPE svg PUBLIC "-//W3C//DTD SVG 1.1//EN" "http://www.w3.org/Graphics/SVG/1.1/DTD/svg11.dtd">
<!-- Creator: CorelDRAW X8 -->
<svg xmlns="http://www.w3.org/2000/svg" xml:space="preserve" width="833px" height="833px" version="1.1" style="shape-rendering:geometricPrecision; text-rendering:geometricPrecision; image-rendering:optimizeQuality; fill-rule:evenodd; clip-rule:evenodd"
viewBox="0 0 292759 292759"
 xmlns:xlink="http://www.w3.org/1999/xlink">
 <defs>
  <style type="text/css">
   <![CDATA[
    .fil0 {fill:#333333}
   ]]>
  </style>
 </defs>
 <g id="Слой_x0020_1">
  <metadata id="CorelCorpID_0Corel-Layer"/>
  <path class="fil0" d="M120642 92009c-7475,1732 -11418,6025 -11553,14885l7 78213c47,8650 3486,13646 10561,15467 7572,1949 13462,-3196 18584,-6059l49572 -28571c4822,-2728 12781,-6798 15953,-10104 4859,-5065 5356,-13118 382,-18648 -3618,-4020 -55570,-33264 -65448,-38744 -4747,-2634 -11198,-8028 -18058,-6439zm11173 -80335c43506,-5326 92802,13918 119422,48129 29408,37795 39252,85390 23178,131498 -6692,19196 -21300,43444 -36961,55975 -1656,1325 -2775,2567 -4511,3927 -6140,4812 -12532,9314 -20174,13636 -14421,8156 -32306,14186 -51302,16223 -79851,8561 -142442,-49439 -149737,-119868 -2130,-20562 466,-41702 6666,-59803 7794,-22752 23152,-45413 41486,-59886 21414,-16902 42578,-26238 71933,-29831zm147741 194631c1783,-4388 3520,-7788 5270,-13036 10429,-31288 10721,-62561 8,-93834 -5658,-16516 -18064,-38903 -30895,-51478 -4400,-4313 -1540,-2507 -6648,-6729 -1027,-849 -1576,-1478 -2503,-2425l-9877 -8428c-44645,-33258 -96753,-39483 -148532,-17301 -13015,5575 -32841,19471 -43291,29925l-8602 9703c-20998,27205 -34486,55006 -34486,93654 0,34136 15293,75270 38893,98399l6538 6839c1293,1068 1457,1177 2617,2311 13604,13300 33625,24794 51460,30908 4858,1665 9029,2748 14242,4060 20471,5153 44832,5208 65333,2 14256,-3621 14711,-4239 27265,-9341 6035,-2453 18224,-9438 23330,-13279 6083,-4574 16999,-13141 21837,-18996 848,-1027 1477,-1576 2424,-2504 2029,-1988 2573,-2706 4302,-4850 1393,-1725 2675,-3182 4164,-4988 5338,-6477 14022,-20907 17151,-28612z"/>
 </g>
</svg>
