<?xml version="1.0" encoding="UTF-8"?>
<!DOCTYPE svg PUBLIC "-//W3C//DTD SVG 1.1//EN" "http://www.w3.org/Graphics/SVG/1.1/DTD/svg11.dtd">
<!-- Creator: CorelDRAW X8 -->
<svg xmlns="http://www.w3.org/2000/svg" xml:space="preserve" width="112.538mm" height="109.751mm" version="1.1" style="shape-rendering:geometricPrecision; text-rendering:geometricPrecision; image-rendering:optimizeQuality; fill-rule:evenodd; clip-rule:evenodd"
viewBox="0 0 11167 10890"
 xmlns:xlink="http://www.w3.org/1999/xlink">
 <defs>
  <style type="text/css">
   <![CDATA[
    .fil0 {fill:#333333}
    .fil2 {fill:#6699FF}
    .fil1 {fill:#CF0000}
    .fil3 {fill:#E6E6E6}
   ]]>
  </style>
 </defs>
 <g id="Слой_x0020_1">
  <metadata id="CorelCorpID_0Corel-Layer"/>
  <g id="_677694144">
   <path class="fil0" d="M5028 3885c-186,43 -284,150 -287,370l0 1944c1,215 87,339 262,384 189,49 335,-79 462,-150l1233 -710c120,-68 317,-169 396,-252 121,-125 133,-326 10,-463 -90,-100 -1382,-827 -1627,-963 -118,-65 -278,-199 -449,-160zm278 -1996c1081,-133 2307,346 2968,1196 731,939 976,2122 577,3268 -167,477 -530,1079 -919,1391 -41,33 -69,64 -112,97 -153,120 -312,232 -502,339 -358,203 -803,353 -1275,403 -1985,213 -3541,-1228 -3722,-2979 -53,-511 11,-1036 165,-1486 194,-565 576,-1128 1032,-1488 532,-420 1058,-652 1788,-741zm3672 4837c45,-110 88,-194 131,-324 260,-778 267,-1555 1,-2332 -141,-411 -450,-967 -768,-1280 -110,-107 -39,-62 -166,-167 -25,-21 -39,-37 -62,-60l-245 -210c-1110,-826 -2406,-981 -3693,-430 -323,139 -816,484 -1076,744l-214 241c-522,676 -857,1367 -857,2328 0,848 380,1870 967,2445l162 170c33,27 37,29 65,57 339,331 836,617 1280,769 120,41 224,68 354,100 509,129 1114,130 1624,1 354,-90 365,-106 677,-233 151,-61 454,-234 580,-330 152,-113 423,-326 543,-472 21,-25 37,-39 61,-62 50,-49 63,-67 106,-120 35,-43 67,-80 104,-124 133,-161 349,-520 426,-711z"/>
   <path class="fil1" d="M1049 5236c0,-1575 789,-2966 1993,-3800l-438 0c-1108,895 -1818,2265 -1818,3800 0,2696 2186,4882 4882,4882 2696,0 4881,-2186 4881,-4882 0,-1535 -709,-2905 -1818,-3800l-438 0c1205,834 1994,2225 1994,3800 0,2551 -2068,4619 -4619,4619 -2551,0 -4619,-2068 -4619,-4619z"/>
   <path class="fil2" d="M2365 2994c763,-1127 2000,-1740 3264,-1753l-313 -212c-1225,104 -2395,740 -3138,1838 -1305,1927 -800,4547 1128,5852 1928,1304 4548,799 5852,-1128 743,-1099 899,-2421 539,-3597l-313 -212c458,1179 349,2555 -414,3681 -1234,1824 -3713,2302 -5537,1068 -1824,-1234 -2302,-3713 -1068,-5537z"/>
   <path class="fil3" d="M646 7184c-640,-1684 -362,-3492 587,-4872l-468 178c-822,1407 -1023,3159 -399,4800 1095,2882 4320,4330 7201,3234 2882,-1095 4329,-4320 3234,-7201 -624,-1641 -1939,-2817 -3488,-3323l-468 178c1626,401 3035,1568 3675,3252 1037,2726 -333,5777 -3060,6814 -2726,1036 -5777,-334 -6814,-3060z"/>
  </g>
 </g>
</svg>
