<?xml version="1.0" encoding="UTF-8"?>
<!DOCTYPE svg PUBLIC "-//W3C//DTD SVG 1.1//EN" "http://www.w3.org/Graphics/SVG/1.1/DTD/svg11.dtd">
<!-- Creator: CorelDRAW X7 -->
<svg xmlns="http://www.w3.org/2000/svg" xml:space="preserve" width="91px" height="137px" version="1.1" shape-rendering="geometricPrecision" text-rendering="geometricPrecision" image-rendering="optimizeQuality" fill-rule="evenodd" clip-rule="evenodd"
viewBox="0 0 1909 2863"
 xmlns:xlink="http://www.w3.org/1999/xlink">
 <g id="Слой_x0020_1">
  <metadata id="CorelCorpID_0Corel-Layer"/>
  <g id="_350223648">
   <g>
    <path fill="#333333" d="M716 2772l0 -2682c0,-50 -41,-90 -91,-90l-534 0c-51,0 -91,40 -91,90l0 2682c0,50 40,91 91,91l534 0c50,0 91,-40 91,-91z"/>
    <path fill="#333333" d="M1818 0l-534 0c-50,0 -91,40 -91,90l0 2682c0,50 40,91 91,91l534 0c50,0 91,-40 91,-91l0 -2682c0,-50 -41,-90 -91,-90z"/>
   </g>
  </g>
 </g>
</svg>
