<?xml version="1.0" encoding="UTF-8"?>
<!DOCTYPE svg PUBLIC "-//W3C//DTD SVG 1.1//EN" "http://www.w3.org/Graphics/SVG/1.1/DTD/svg11.dtd">
<!-- Creator: CorelDRAW X8 -->
<svg xmlns="http://www.w3.org/2000/svg" xml:space="preserve" width="14.1534mm" height="21.2264mm" version="1.1" style="shape-rendering:geometricPrecision; text-rendering:geometricPrecision; image-rendering:optimizeQuality; fill-rule:evenodd; clip-rule:evenodd"
viewBox="0 0 832 1248"
 xmlns:xlink="http://www.w3.org/1999/xlink">
 <defs>
  <style type="text/css">
   <![CDATA[
    .fil0 {fill:#333333}
   ]]>
  </style>
 </defs>
 <g id="Слой_x0020_1">
  <metadata id="CorelCorpID_0Corel-Layer"/>
  <g id="_350223648">
   <g>
    <path class="fil0" d="M312 1208l0 -1169c0,-22 -18,-39 -40,-39l-232 0c-23,0 -40,17 -40,39l0 1169c0,22 17,40 40,40l232 0c22,0 40,-18 40,-40z"/>
    <path class="fil0" d="M792 0l-232 0c-22,0 -40,17 -40,39l0 1169c0,22 17,40 40,40l232 0c22,0 40,-18 40,-40l0 -1169c0,-22 -18,-39 -40,-39z"/>
   </g>
  </g>
 </g>
</svg>
