<?xml version="1.0" encoding="UTF-8"?>
<!DOCTYPE svg PUBLIC "-//W3C//DTD SVG 1.1//EN" "http://www.w3.org/Graphics/SVG/1.1/DTD/svg11.dtd">
<!-- Creator: CorelDRAW X8 -->
<svg xmlns="http://www.w3.org/2000/svg" xml:space="preserve" width="20px" height="16px" version="1.1" style="shape-rendering:geometricPrecision; text-rendering:geometricPrecision; image-rendering:optimizeQuality; fill-rule:evenodd; clip-rule:evenodd"
viewBox="0 0 1014 812"
 xmlns:xlink="http://www.w3.org/1999/xlink">
 <defs>
  <style type="text/css">
   <![CDATA[
    .fil0 {fill:#333333}
   ]]>
  </style>
 </defs>
 <g id="Слой_x0020_1">
  <metadata id="CorelCorpID_0Corel-Layer"/>
  <g id="_653532608">
   <g>
    <path class="fil0" d="M51 472l0 -142c0,-102 139,-14 199,-70l147 -127c12,-12 90,-82 100,-82l30 5c2,16 5,18 5,35l0 629c0,18 -3,20 -5,36 -71,6 -19,12 -80,-36l-144 -130c-18,-15 -32,-27 -50,-41 -31,-25 -10,-27 -65,-27 -86,1 -137,16 -137,-50zm-51 -198l0 254c0,98 182,19 227,61 38,35 86,86 129,120 37,30 87,103 146,103 26,0 81,3 81,-46l0 -720c0,-49 -55,-46 -81,-46 -58,0 -117,78 -170,119l-102 90c-29,28 -26,19 -78,19 -69,0 -152,-15 -152,46z"/>
    <path class="fil0" d="M963 396c0,35 -11,92 -22,119 -30,82 -91,158 -168,197 -24,11 -29,14 -43,34 5,18 7,19 21,30 29,-2 80,-36 100,-51 88,-66 163,-185 163,-309 0,-155 -47,-251 -156,-341 -119,-98 -148,-37 -116,-11 9,8 38,19 52,29 81,55 140,135 160,231 3,13 9,57 9,72z"/>
   </g>
   <path class="fil0" d="M674 157c0,23 1,25 17,34 13,8 20,10 33,18 67,43 100,94 111,184 10,87 -55,169 -128,213 -33,20 -21,31 -17,48 31,8 29,12 88,-33 132,-99 145,-290 40,-409 -24,-26 -71,-66 -107,-76 -15,-4 -37,1 -37,21z"/>
   <path class="fil0" d="M629 269c0,49 25,25 57,54 36,33 43,103 0,145 -34,34 -52,13 -52,54 0,53 137,4 137,-121 0,-125 -142,-188 -142,-132z"/>
  </g>
 </g>
</svg>
